<mxfile host="app.diagrams.net" modified="2022-03-03T18:20:45.500Z" agent="5.0 (Macintosh)" etag="Xwjx7hsooCk7CFpZg30V" version="16.6.5" type="github">
  <diagram id="C5RBs43oDa-KdzZeNtuy" name="Page-1">
    <mxGraphModel dx="1121" dy="711" grid="1" gridSize="10" guides="1" tooltips="1" connect="1" arrows="1" fold="1" page="1" pageScale="1" pageWidth="827" pageHeight="1169" math="0" shadow="0">
      <root>
        <mxCell id="WIyWlLk6GJQsqaUBKTNV-0" />
        <mxCell id="WIyWlLk6GJQsqaUBKTNV-1" parent="WIyWlLk6GJQsqaUBKTNV-0" />
        <mxCell id="A6-eIp8FKhQqn3AHu-FI-4" style="edgeStyle=orthogonalEdgeStyle;rounded=0;orthogonalLoop=1;jettySize=auto;html=1;entryX=0.5;entryY=0;entryDx=0;entryDy=0;fontSize=16;strokeColor=#000000;" edge="1" parent="WIyWlLk6GJQsqaUBKTNV-1" source="A6-eIp8FKhQqn3AHu-FI-0" target="A6-eIp8FKhQqn3AHu-FI-3">
          <mxGeometry relative="1" as="geometry" />
        </mxCell>
        <mxCell id="A6-eIp8FKhQqn3AHu-FI-0" value="Inicio" style="ellipse;whiteSpace=wrap;html=1;fontSize=16;" vertex="1" parent="WIyWlLk6GJQsqaUBKTNV-1">
          <mxGeometry x="215" y="20" width="90" height="60" as="geometry" />
        </mxCell>
        <mxCell id="A6-eIp8FKhQqn3AHu-FI-1" value="Fin" style="ellipse;whiteSpace=wrap;html=1;fontSize=16;" vertex="1" parent="WIyWlLk6GJQsqaUBKTNV-1">
          <mxGeometry x="215" y="600" width="90" height="60" as="geometry" />
        </mxCell>
        <object label="" True="" id="A6-eIp8FKhQqn3AHu-FI-7">
          <mxCell style="edgeStyle=orthogonalEdgeStyle;rounded=0;orthogonalLoop=1;jettySize=auto;html=1;fontSize=16;strokeColor=#000000;" edge="1" parent="WIyWlLk6GJQsqaUBKTNV-1" source="A6-eIp8FKhQqn3AHu-FI-3" target="A6-eIp8FKhQqn3AHu-FI-6">
            <mxGeometry relative="1" as="geometry" />
          </mxCell>
        </object>
        <mxCell id="A6-eIp8FKhQqn3AHu-FI-10" style="edgeStyle=orthogonalEdgeStyle;rounded=0;orthogonalLoop=1;jettySize=auto;html=1;fontSize=16;" edge="1" parent="WIyWlLk6GJQsqaUBKTNV-1" source="A6-eIp8FKhQqn3AHu-FI-3" target="A6-eIp8FKhQqn3AHu-FI-9">
          <mxGeometry relative="1" as="geometry" />
        </mxCell>
        <mxCell id="A6-eIp8FKhQqn3AHu-FI-3" value="A&amp;gt;1 ∧ B==0" style="rhombus;whiteSpace=wrap;html=1;fontSize=16;" vertex="1" parent="WIyWlLk6GJQsqaUBKTNV-1">
          <mxGeometry x="200" y="110" width="120" height="120" as="geometry" />
        </mxCell>
        <mxCell id="A6-eIp8FKhQqn3AHu-FI-11" style="edgeStyle=orthogonalEdgeStyle;rounded=0;orthogonalLoop=1;jettySize=auto;html=1;fontSize=16;entryX=1;entryY=0.5;entryDx=0;entryDy=0;strokeColor=#000000;" edge="1" parent="WIyWlLk6GJQsqaUBKTNV-1" source="A6-eIp8FKhQqn3AHu-FI-6" target="A6-eIp8FKhQqn3AHu-FI-9">
          <mxGeometry relative="1" as="geometry">
            <mxPoint x="280" y="290" as="targetPoint" />
            <Array as="points">
              <mxPoint x="440" y="285" />
            </Array>
          </mxGeometry>
        </mxCell>
        <mxCell id="A6-eIp8FKhQqn3AHu-FI-8" value="&lt;div align=&quot;left&quot;&gt;+&lt;/div&gt;" style="text;html=1;strokeColor=none;fillColor=none;align=left;verticalAlign=middle;whiteSpace=wrap;rounded=0;fontSize=16;" vertex="1" parent="WIyWlLk6GJQsqaUBKTNV-1">
          <mxGeometry x="320" y="130" width="60" height="30" as="geometry" />
        </mxCell>
        <mxCell id="A6-eIp8FKhQqn3AHu-FI-6" value="X = X/A" style="rounded=0;whiteSpace=wrap;html=1;fontSize=16;" vertex="1" parent="WIyWlLk6GJQsqaUBKTNV-1">
          <mxGeometry x="380" y="140" width="120" height="60" as="geometry" />
        </mxCell>
        <mxCell id="A6-eIp8FKhQqn3AHu-FI-13" style="edgeStyle=orthogonalEdgeStyle;rounded=0;orthogonalLoop=1;jettySize=auto;html=1;entryX=0.5;entryY=0;entryDx=0;entryDy=0;fontSize=16;strokeColor=#000000;" edge="1" parent="WIyWlLk6GJQsqaUBKTNV-1" source="A6-eIp8FKhQqn3AHu-FI-9" target="A6-eIp8FKhQqn3AHu-FI-12">
          <mxGeometry relative="1" as="geometry" />
        </mxCell>
        <mxCell id="A6-eIp8FKhQqn3AHu-FI-9" value="" style="ellipse;whiteSpace=wrap;html=1;aspect=fixed;fontSize=16;" vertex="1" parent="WIyWlLk6GJQsqaUBKTNV-1">
          <mxGeometry x="245" y="270" width="30" height="30" as="geometry" />
        </mxCell>
        <mxCell id="A6-eIp8FKhQqn3AHu-FI-18" style="edgeStyle=orthogonalEdgeStyle;rounded=0;orthogonalLoop=1;jettySize=auto;html=1;fontSize=16;strokeColor=#000000;" edge="1" parent="WIyWlLk6GJQsqaUBKTNV-1" source="A6-eIp8FKhQqn3AHu-FI-12" target="A6-eIp8FKhQqn3AHu-FI-14">
          <mxGeometry relative="1" as="geometry" />
        </mxCell>
        <mxCell id="A6-eIp8FKhQqn3AHu-FI-20" style="edgeStyle=orthogonalEdgeStyle;rounded=0;orthogonalLoop=1;jettySize=auto;html=1;fontSize=16;" edge="1" parent="WIyWlLk6GJQsqaUBKTNV-1" source="A6-eIp8FKhQqn3AHu-FI-12" target="A6-eIp8FKhQqn3AHu-FI-19">
          <mxGeometry relative="1" as="geometry" />
        </mxCell>
        <mxCell id="A6-eIp8FKhQqn3AHu-FI-12" value="A==2 ∨ X&amp;gt;1" style="rhombus;whiteSpace=wrap;html=1;fontSize=16;" vertex="1" parent="WIyWlLk6GJQsqaUBKTNV-1">
          <mxGeometry x="200" y="360" width="120" height="120" as="geometry" />
        </mxCell>
        <mxCell id="A6-eIp8FKhQqn3AHu-FI-21" style="edgeStyle=orthogonalEdgeStyle;rounded=0;orthogonalLoop=1;jettySize=auto;html=1;entryX=1;entryY=0.5;entryDx=0;entryDy=0;fontSize=16;strokeColor=#000000;" edge="1" parent="WIyWlLk6GJQsqaUBKTNV-1" source="A6-eIp8FKhQqn3AHu-FI-14" target="A6-eIp8FKhQqn3AHu-FI-19">
          <mxGeometry relative="1" as="geometry">
            <Array as="points">
              <mxPoint x="440" y="545" />
            </Array>
          </mxGeometry>
        </mxCell>
        <mxCell id="A6-eIp8FKhQqn3AHu-FI-14" value="X = X+1" style="rounded=0;whiteSpace=wrap;html=1;fontSize=16;" vertex="1" parent="WIyWlLk6GJQsqaUBKTNV-1">
          <mxGeometry x="380" y="390" width="120" height="60" as="geometry" />
        </mxCell>
        <mxCell id="A6-eIp8FKhQqn3AHu-FI-15" value="&lt;div align=&quot;left&quot;&gt;+&lt;/div&gt;" style="text;html=1;strokeColor=none;fillColor=none;align=left;verticalAlign=middle;whiteSpace=wrap;rounded=0;fontSize=16;" vertex="1" parent="WIyWlLk6GJQsqaUBKTNV-1">
          <mxGeometry x="320" y="380" width="60" height="30" as="geometry" />
        </mxCell>
        <mxCell id="A6-eIp8FKhQqn3AHu-FI-16" value="-" style="text;html=1;strokeColor=none;fillColor=none;align=right;verticalAlign=middle;whiteSpace=wrap;rounded=0;fontSize=16;" vertex="1" parent="WIyWlLk6GJQsqaUBKTNV-1">
          <mxGeometry x="191" y="230" width="60" height="30" as="geometry" />
        </mxCell>
        <mxCell id="A6-eIp8FKhQqn3AHu-FI-17" value="-" style="text;html=1;strokeColor=none;fillColor=none;align=right;verticalAlign=middle;whiteSpace=wrap;rounded=0;fontSize=16;" vertex="1" parent="WIyWlLk6GJQsqaUBKTNV-1">
          <mxGeometry x="190" y="480" width="60" height="30" as="geometry" />
        </mxCell>
        <mxCell id="A6-eIp8FKhQqn3AHu-FI-22" style="edgeStyle=orthogonalEdgeStyle;rounded=0;orthogonalLoop=1;jettySize=auto;html=1;exitX=0.5;exitY=1;exitDx=0;exitDy=0;fontSize=16;strokeColor=#000000;" edge="1" parent="WIyWlLk6GJQsqaUBKTNV-1" source="A6-eIp8FKhQqn3AHu-FI-19" target="A6-eIp8FKhQqn3AHu-FI-1">
          <mxGeometry relative="1" as="geometry" />
        </mxCell>
        <mxCell id="A6-eIp8FKhQqn3AHu-FI-19" value="" style="ellipse;whiteSpace=wrap;html=1;aspect=fixed;fontSize=16;" vertex="1" parent="WIyWlLk6GJQsqaUBKTNV-1">
          <mxGeometry x="245" y="530" width="30" height="30" as="geometry" />
        </mxCell>
      </root>
    </mxGraphModel>
  </diagram>
</mxfile>
